<svg width="31" height="31" viewBox="0 0 31 31" fill="none" xmlns="http://www.w3.org/2000/svg">
<path d="M30.4882 15.5878C30.4882 23.8688 23.7692 30.5878 15.4882 30.5878C7.20717 30.5878 0.488159 23.8688 0.488159 15.5878C0.488159 7.30677 7.20717 0.587769 15.4882 0.587769C23.7692 0.587769 30.4882 7.30677 30.4882 15.5878Z" fill="white"/>
<path d="M28.3562 15.5881C28.3562 22.679 22.6041 28.4559 15.4884 28.4559C8.37273 28.4559 2.62067 22.7038 2.62067 15.5881C2.62067 8.4724 8.37273 2.72034 15.4884 2.72034C22.6041 2.72034 28.3562 8.4972 28.3562 15.5881Z" fill="#ED1D24"/>
<path d="M23.2487 20.8196C23.2487 21.3402 22.8272 21.7617 22.3066 21.7617C21.7859 21.7617 21.3644 21.3402 21.3644 20.8196C21.3644 20.2989 21.7859 19.8774 22.3066 19.8774C22.852 19.8774 23.2487 20.2989 23.2487 20.8196Z" fill="white"/>
<path d="M11.6453 21.3391C10.6536 20.2977 11.4222 18.2895 11.5957 16.6035C11.3726 16.8267 9.26517 21.7606 7.33128 21.7606C7.30649 21.7606 7.25691 21.7606 7.23211 21.7606C5.47178 21.587 5.69492 19.1572 6.24038 17.6944H9.06682C8.19905 20.0994 9.38914 19.1077 10.2073 17.5953C11.8437 14.273 11.8685 14.1986 13.6536 9.19031H16.7776C15.8602 12.0415 15.0668 14.5953 14.6949 17.5457C14.6949 17.6449 14.7445 17.7688 14.8685 17.7192C15.5131 17.6201 19.009 9.73576 19.3313 9.19031H22.4552C22.4552 9.19031 19.1329 18.3639 19.6784 19.2316C19.9511 19.7275 20.323 18.7854 20.6701 18.4135L21.166 18.9093C20.2486 19.9258 19.2073 21.7853 17.7445 21.7853C17.6205 21.7853 17.5214 21.7606 17.3974 21.7606C17.1743 21.711 16.9511 21.587 16.8024 21.4382C15.1164 19.9754 18.166 14.5209 17.8437 14.1738C17.7445 14.1738 17.6453 14.4465 17.4718 14.8184C16.5544 16.7275 14.4222 21.7853 12.6619 21.7853C12.3643 21.7606 11.9429 21.6614 11.6453 21.3391Z" fill="white"/>
</svg>
